<?xml version="1.0" encoding="UTF-8" standalone="no"?>
<!DOCTYPE svg PUBLIC "-//W3C//DTD SVG 1.1//EN" "http://www.w3.org/Graphics/SVG/1.1/DTD/svg11.dtd">
<svg width="100%" height="100%" viewBox="0 0 1182 1182" version="1.1" xmlns="http://www.w3.org/2000/svg" xmlns:xlink="http://www.w3.org/1999/xlink" xml:space="preserve" xmlns:serif="http://www.serif.com/" style="fill-rule:evenodd;clip-rule:evenodd;stroke-linecap:round;stroke-miterlimit:10;">
    <g transform="matrix(1,0,0,1,-20787,-1)">
        <g id="AddEdge1" transform="matrix(1.00085,0,0,1.00085,1259.06,-0.000847384)">
            <rect x="19511.8" y="1" width="1180.1" height="1180.1" style="fill:none;"/>
            <clipPath id="_clip1">
                <rect x="19511.8" y="1" width="1180.1" height="1180.1"/>
            </clipPath>
            <g clip-path="url(#_clip1)">
                <g transform="matrix(0.999153,0,0,0.999153,40.122,0.000846667)">
                    <g transform="matrix(1,-0,-0,1,19487.8,1)">
                        <path d="M581.127,196.52L998.002,293.329L748.303,640.902" style="fill:none;stroke:black;stroke-width:105.51px;"/>
                        <path d="M189.378,944.882C388.765,523.069 655.345,421.568 998.002,293.329" style="fill:none;stroke:black;stroke-width:105.51px;stroke-linejoin:round;stroke-miterlimit:100;"/>
                    </g>
                </g>
                <g transform="matrix(0.999153,0,0,0.999153,40.122,0.000846667)">
                    <path d="M19818.9,213.598C19818.9,200.561 19808.3,189.976 19795.3,189.976L19606.3,189.976C19593.3,189.976 19582.7,200.561 19582.7,213.598C19582.7,226.636 19593.3,237.22 19606.3,237.22L19795.3,237.22C19808.3,237.22 19818.9,226.636 19818.9,213.598Z" style="stroke:black;stroke-width:41.67px;stroke-linejoin:round;stroke-miterlimit:100;"/>
                </g>
                <g transform="matrix(6.11805e-17,0.999153,-0.999153,6.11805e-17,19937.6,-19470.7)">
                    <path d="M19818.9,213.598C19818.9,200.561 19808.3,189.976 19795.3,189.976L19606.3,189.976C19593.3,189.976 19582.7,200.561 19582.7,213.598C19582.7,226.636 19593.3,237.22 19606.3,237.22L19795.3,237.22C19808.3,237.22 19818.9,226.636 19818.9,213.598Z" style="stroke:black;stroke-width:41.67px;stroke-linejoin:round;stroke-miterlimit:100;"/>
                </g>
            </g>
        </g>
    </g>
</svg>
