<svg width="64" height="64" viewBox="0 0 64 64" fill="none" xmlns="http://www.w3.org/2000/svg">
<g filter="url(#filter0_d)">
<circle cx="32" cy="30.0002" r="28" fill="white"/>
<circle cx="32" cy="30.0002" r="27.5" stroke="#F2F2F2"/>
</g>
<path d="M48 17.0002L30.6975 17.7906L40.0333 32.3798L48 17.0002ZM24 43.0002C25.4552 43.364 25.4551 43.3643 25.455 43.3646C25.455 43.3647 25.4549 43.365 25.4549 43.3651C25.4549 43.3654 25.4548 43.3655 25.4548 43.3655C25.4548 43.3655 25.4549 43.365 25.4552 43.3641C25.4557 43.3622 25.4566 43.3584 25.4581 43.3527C25.461 43.3414 25.4659 43.3227 25.4729 43.2967C25.4868 43.2449 25.5088 43.1643 25.5395 43.0575C25.6008 42.8436 25.6966 42.5247 25.8306 42.1191C26.0987 41.3071 26.5188 40.1512 27.1207 38.7969C28.3282 36.0801 30.2475 32.6102 33.1022 29.5177L30.8978 27.4828C27.7525 30.8903 25.6718 34.6704 24.3793 37.5785C23.7311 39.0368 23.2762 40.287 22.9819 41.1782C22.8346 41.6241 22.7273 41.981 22.6558 42.2301C22.6201 42.3546 22.5933 42.4523 22.5749 42.5208C22.5658 42.5551 22.5587 42.582 22.5537 42.6014C22.5512 42.611 22.5492 42.6188 22.5477 42.6247C22.547 42.6276 22.5464 42.63 22.5459 42.632C22.5456 42.633 22.5454 42.6338 22.5452 42.6346C22.5451 42.6349 22.545 42.6354 22.545 42.6356C22.5449 42.636 22.5448 42.6364 24 43.0002ZM33.1022 29.5177C34.4219 28.088 35.9602 26.7186 37.5588 25.4535L35.6971 23.101C34.0136 24.4334 32.3514 25.9081 30.8978 27.4828L33.1022 29.5177Z" fill="#595959"/>
<mask id="path-4-inside-1" fill="white">
<path fill-rule="evenodd" clip-rule="evenodd" d="M24 15.0002C23.0335 15.0002 22.25 15.7837 22.25 16.7502V20.4252H18.75C17.7835 20.4252 17 21.2087 17 22.1752C17 23.1417 17.7835 23.9252 18.75 23.9252H22.25V27.2502C22.25 28.2167 23.0335 29.0002 24 29.0002C24.9665 29.0002 25.75 28.2167 25.75 27.2502V23.9252H29.25C30.2165 23.9252 31 23.1417 31 22.1752C31 21.2087 30.2165 20.4252 29.25 20.4252H25.75V16.7502C25.75 15.7837 24.9665 15.0002 24 15.0002Z"/>
</mask>
<path fill-rule="evenodd" clip-rule="evenodd" d="M24 15.0002C23.0335 15.0002 22.25 15.7837 22.25 16.7502V20.4252H18.75C17.7835 20.4252 17 21.2087 17 22.1752C17 23.1417 17.7835 23.9252 18.75 23.9252H22.25V27.2502C22.25 28.2167 23.0335 29.0002 24 29.0002C24.9665 29.0002 25.75 28.2167 25.75 27.2502V23.9252H29.25C30.2165 23.9252 31 23.1417 31 22.1752C31 21.2087 30.2165 20.4252 29.25 20.4252H25.75V16.7502C25.75 15.7837 24.9665 15.0002 24 15.0002Z" fill="black"/>
<path d="M22.25 20.4252V21.1752H23V20.4252H22.25ZM22.25 23.9252H23V23.1752H22.25V23.9252ZM25.75 23.9252V23.1752H25V23.9252H25.75ZM25.75 20.4252H25V21.1752H25.75V20.4252ZM23 16.7502C23 16.198 23.4477 15.7502 24 15.7502V14.2502C22.6193 14.2502 21.5 15.3695 21.5 16.7502H23ZM23 20.4252V16.7502H21.5V20.4252H23ZM18.75 21.1752H22.25V19.6752H18.75V21.1752ZM17.75 22.1752C17.75 21.623 18.1977 21.1752 18.75 21.1752V19.6752C17.3693 19.6752 16.25 20.7945 16.25 22.1752H17.75ZM18.75 23.1752C18.1977 23.1752 17.75 22.7275 17.75 22.1752H16.25C16.25 23.556 17.3693 24.6752 18.75 24.6752V23.1752ZM22.25 23.1752H18.75V24.6752H22.25V23.1752ZM23 27.2502V23.9252H21.5V27.2502H23ZM24 28.2502C23.4477 28.2502 23 27.8025 23 27.2502H21.5C21.5 28.631 22.6193 29.7502 24 29.7502V28.2502ZM25 27.2502C25 27.8025 24.5523 28.2502 24 28.2502V29.7502C25.3807 29.7502 26.5 28.631 26.5 27.2502H25ZM25 23.9252V27.2502H26.5V23.9252H25ZM29.25 23.1752H25.75V24.6752H29.25V23.1752ZM30.25 22.1752C30.25 22.7275 29.8023 23.1752 29.25 23.1752V24.6752C30.6307 24.6752 31.75 23.556 31.75 22.1752H30.25ZM29.25 21.1752C29.8023 21.1752 30.25 21.623 30.25 22.1752H31.75C31.75 20.7945 30.6307 19.6752 29.25 19.6752V21.1752ZM25.75 21.1752H29.25V19.6752H25.75V21.1752ZM25 16.7502V20.4252H26.5V16.7502H25ZM24 15.7502C24.5523 15.7502 25 16.198 25 16.7502H26.5C26.5 15.3695 25.3807 14.2502 24 14.2502V15.7502Z" fill="white" mask="url(#path-4-inside-1)"/>
<defs>
<filter id="filter0_d" x="0" y="0.000244141" width="64" height="64" filterUnits="userSpaceOnUse" color-interpolation-filters="sRGB">
<feFlood flood-opacity="0" result="BackgroundImageFix"/>
<feColorMatrix in="SourceAlpha" type="matrix" values="0 0 0 0 0 0 0 0 0 0 0 0 0 0 0 0 0 0 127 0"/>
<feOffset dy="2"/>
<feGaussianBlur stdDeviation="2"/>
<feColorMatrix type="matrix" values="0 0 0 0 0 0 0 0 0 0 0 0 0 0 0 0 0 0 0.1 0"/>
<feBlend mode="normal" in2="BackgroundImageFix" result="effect1_dropShadow"/>
<feBlend mode="normal" in="SourceGraphic" in2="effect1_dropShadow" result="shape"/>
</filter>
</defs>
</svg>
