<svg width="63" height="63" viewBox="0 0 63 63" fill="none" xmlns="http://www.w3.org/2000/svg">
<g filter="url(#filter0_d)">
<circle cx="31.4286" cy="30.0002" r="28" fill="white"/>
<circle cx="31.4286" cy="30.0002" r="27.65" stroke="#F2F2F2" stroke-width="0.7"/>
</g>
<path d="M48.8729 20.5643C49.3313 20.0477 49.2678 19.2435 48.731 18.7671C48.1942 18.2907 47.3881 18.3232 46.9296 18.8397L41.9513 24.4492C41.494 24.9646 40.6856 24.9972 40.15 24.5218C39.6144 24.0465 39.5507 23.24 40.0081 22.7246L44.9864 17.1151C45.4448 16.5986 45.3813 15.7943 44.8445 15.3179C44.3077 14.8415 43.5016 14.874 43.0432 15.3906L38.0649 21.0001C37.6075 21.5154 36.7991 21.548 36.2635 21.0727C35.7279 20.5973 35.6643 19.7909 36.1216 19.2755L41.0999 13.666C41.5584 13.1494 41.4949 12.3452 40.958 11.8688C40.4212 11.3924 39.6151 11.4249 39.1567 11.9414C33.7232 18.0638 34.0935 17.6325 33.9324 17.8611C33.5822 18.1276 30.6286 21.3711 30.5065 24.5653C30.4846 25.1454 30.5476 25.7079 30.6934 26.2457C30.688 26.3412 30.6928 26.4384 30.7096 26.5369C30.9293 27.8318 30.3464 29.6971 29.3824 30.7834C26.6021 33.9162 24.6172 36.5559 19.7144 38.6621C18.8339 39.0401 18.2563 39.406 17.8964 39.8115C16.5082 41.3757 16.6861 43.8087 18.2936 45.2353C19.901 46.6618 22.3379 46.5495 23.7261 44.9852C24.086 44.5797 24.3806 43.9627 24.6514 43.0436C26.1812 37.8538 28.7413 35.42 31.3256 32.508C32.2897 31.4217 34.0725 30.6213 35.3843 30.6856C35.4841 30.6906 35.5813 30.6839 35.6754 30.6671C38.731 31.1153 41.491 28.8821 43.4797 26.6412C52.0523 16.9818 47.4539 22.1632 48.8729 20.5643Z" fill="#595959"/>
<mask id="path-4-inside-1" fill="white">
<path fill-rule="evenodd" clip-rule="evenodd" d="M23.4286 15.0003C22.4621 15.0003 21.6786 15.7838 21.6786 16.7503V20.4253H18.1786C17.2121 20.4253 16.4286 21.2088 16.4286 22.1753C16.4286 23.1418 17.2121 23.9253 18.1786 23.9253H21.6786V27.2503C21.6786 28.2168 22.4621 29.0003 23.4286 29.0003C24.3951 29.0003 25.1786 28.2168 25.1786 27.2503V23.9253H28.6786C29.6451 23.9253 30.4286 23.1418 30.4286 22.1753C30.4286 21.2088 29.6451 20.4253 28.6786 20.4253H25.1786V16.7503C25.1786 15.7838 24.3951 15.0003 23.4286 15.0003Z"/>
</mask>
<path fill-rule="evenodd" clip-rule="evenodd" d="M23.4286 15.0003C22.4621 15.0003 21.6786 15.7838 21.6786 16.7503V20.4253H18.1786C17.2121 20.4253 16.4286 21.2088 16.4286 22.1753C16.4286 23.1418 17.2121 23.9253 18.1786 23.9253H21.6786V27.2503C21.6786 28.2168 22.4621 29.0003 23.4286 29.0003C24.3951 29.0003 25.1786 28.2168 25.1786 27.2503V23.9253H28.6786C29.6451 23.9253 30.4286 23.1418 30.4286 22.1753C30.4286 21.2088 29.6451 20.4253 28.6786 20.4253H25.1786V16.7503C25.1786 15.7838 24.3951 15.0003 23.4286 15.0003Z" fill="black"/>
<path d="M21.6786 20.4253V20.9503H22.2036V20.4253H21.6786ZM21.6786 23.9253H22.2036V23.4003H21.6786V23.9253ZM25.1786 23.9253V23.4003H24.6536V23.9253H25.1786ZM25.1786 20.4253H24.6536V20.9503H25.1786V20.4253ZM22.2036 16.7503C22.2036 16.0738 22.752 15.5253 23.4286 15.5253V14.4753C22.1721 14.4753 21.1536 15.4939 21.1536 16.7503H22.2036ZM22.2036 20.4253V16.7503H21.1536V20.4253H22.2036ZM18.1786 20.9503H21.6786V19.9003H18.1786V20.9503ZM16.9536 22.1753C16.9536 21.4987 17.502 20.9503 18.1786 20.9503V19.9003C16.9221 19.9003 15.9036 20.9188 15.9036 22.1753L16.9536 22.1753ZM18.1786 23.4003C17.502 23.4003 16.9536 22.8518 16.9536 22.1753L15.9036 22.1753C15.9036 23.4317 16.9221 24.4503 18.1786 24.4503V23.4003ZM21.6786 23.4003H18.1786V24.4503H21.6786V23.4003ZM22.2036 27.2503V23.9253H21.1536V27.2503H22.2036ZM23.4286 28.4753C22.752 28.4753 22.2036 27.9269 22.2036 27.2503H21.1536C21.1536 28.5068 22.1721 29.5253 23.4286 29.5253V28.4753ZM24.6536 27.2503C24.6536 27.9269 24.1051 28.4753 23.4286 28.4753V29.5253C24.685 29.5253 25.7036 28.5068 25.7036 27.2503H24.6536ZM24.6536 23.9253V27.2503H25.7036V23.9253H24.6536ZM28.6786 23.4003H25.1786V24.4503H28.6786V23.4003ZM29.9036 22.1753C29.9036 22.8518 29.3551 23.4003 28.6786 23.4003V24.4503C29.935 24.4503 30.9536 23.4317 30.9536 22.1753H29.9036ZM28.6786 20.9503C29.3551 20.9503 29.9036 21.4987 29.9036 22.1753H30.9536C30.9536 20.9188 29.935 19.9003 28.6786 19.9003V20.9503ZM25.1786 20.9503H28.6786V19.9003H25.1786V20.9503ZM24.6536 16.7503V20.4253H25.7036V16.7503H24.6536ZM23.4286 15.5253C24.1051 15.5253 24.6536 16.0738 24.6536 16.7503H25.7036C25.7036 15.4939 24.685 14.4753 23.4286 14.4753V15.5253Z" fill="white" mask="url(#path-4-inside-1)"/>
<defs>
<filter id="filter0_d" x="0.628558" y="0.600244" width="61.6" height="61.6" filterUnits="userSpaceOnUse" color-interpolation-filters="sRGB">
<feFlood flood-opacity="0" result="BackgroundImageFix"/>
<feColorMatrix in="SourceAlpha" type="matrix" values="0 0 0 0 0 0 0 0 0 0 0 0 0 0 0 0 0 0 127 0"/>
<feOffset dy="1.4"/>
<feGaussianBlur stdDeviation="1.4"/>
<feColorMatrix type="matrix" values="0 0 0 0 0 0 0 0 0 0 0 0 0 0 0 0 0 0 0.1 0"/>
<feBlend mode="normal" in2="BackgroundImageFix" result="effect1_dropShadow"/>
<feBlend mode="normal" in="SourceGraphic" in2="effect1_dropShadow" result="shape"/>
</filter>
</defs>
</svg>
