<?xml version="1.0" encoding="UTF-8" standalone="no"?>
<!DOCTYPE svg PUBLIC "-//W3C//DTD SVG 1.1//EN" "http://www.w3.org/Graphics/SVG/1.1/DTD/svg11.dtd">
<svg width="100%" height="100%" viewBox="0 0 1182 1181" version="1.1" xmlns="http://www.w3.org/2000/svg" xmlns:xlink="http://www.w3.org/1999/xlink" xml:space="preserve" xmlns:serif="http://www.serif.com/" style="fill-rule:evenodd;clip-rule:evenodd;stroke-linecap:round;stroke-linejoin:round;stroke-miterlimit:100;">
    <g transform="matrix(1,0,0,1,-10393,-1)">
        <g id="Logger1" transform="matrix(1,0,0,1,-0.700787,0)">
            <rect x="10393.7" y="1" width="1181.1" height="1180.1" style="fill:none;"/>
            <g transform="matrix(1,0,0,1,0.700787,0)">
                <path d="M10629.2,142.732l0,897.638l708.662,0l-0,-661.417l-236.221,-236.221l-472.441,0Z" style="fill:none;stroke:black;stroke-width:104.17px;"/>
            </g>
            <g transform="matrix(1.25,0,0,1.25,-2833.77,-35.6831)">
                <path d="M11148.9,142.732l-0,188.977l188.976,-0" style="fill:none;stroke:black;stroke-width:66.67px;"/>
            </g>
            <g transform="matrix(1,0,0,1,0.700787,-47.2441)">
                <path d="M10771,331.709l188.976,-0" style="fill:none;stroke:black;stroke-width:83.33px;"/>
            </g>
            <g transform="matrix(1,0,0,1,0.700787,0)">
                <path d="M10771,426.197l188.976,-0" style="fill:none;stroke:black;stroke-width:83.33px;"/>
            </g>
            <g transform="matrix(1,0,0,1,0.700787,0)">
                <path d="M10771,567.929l425.197,0" style="fill:none;stroke:black;stroke-width:83.33px;"/>
            </g>
            <g transform="matrix(1,0,0,1,0.700787,0)">
                <path d="M10771,709.661l425.197,0" style="fill:none;stroke:black;stroke-width:83.33px;"/>
            </g>
            <g transform="matrix(1,0,0,1,0.700787,0)">
                <path d="M10771,851.394l425.197,-0" style="fill:none;stroke:black;stroke-width:83.33px;"/>
            </g>
        </g>
    </g>
</svg>
