<svg width="62" height="63" viewBox="0 0 62 63" fill="none" xmlns="http://www.w3.org/2000/svg">
<g filter="url(#filter0_d)">
<circle cx="31" cy="30.0002" r="28" fill="white"/>
<circle cx="31" cy="30.0002" r="27.65" stroke="#F2F2F2" stroke-width="0.7"/>
</g>
<rect x="30.3026" y="19.3853" width="7" height="25" rx="1.4" fill="#595959"/>
<rect x="17.3026" y="19.3853" width="12" height="25" rx="1.4" fill="#595959"/>
<rect x="38.3026" y="19.3853" width="5" height="25" rx="1.4" fill="#595959"/>
<rect x="44.3026" y="19.3853" width="3" height="25" rx="1.4" fill="#595959"/>
<mask id="path-7-inside-1" fill="white">
<path fill-rule="evenodd" clip-rule="evenodd" d="M21.3025 16.3853C20.336 16.3853 19.5525 17.1688 19.5525 18.1353V21.8103H16.0525C15.086 21.8103 14.3025 22.5938 14.3025 23.5603C14.3025 24.5268 15.086 25.3103 16.0525 25.3103H19.5525V28.6353C19.5525 29.6017 20.336 30.3853 21.3025 30.3853C22.269 30.3853 23.0525 29.6017 23.0525 28.6353V25.3103H26.5525C27.519 25.3103 28.3025 24.5268 28.3025 23.5603C28.3025 22.5938 27.519 21.8103 26.5525 21.8103H23.0525V18.1353C23.0525 17.1688 22.269 16.3853 21.3025 16.3853Z"/>
</mask>
<path fill-rule="evenodd" clip-rule="evenodd" d="M21.3025 16.3853C20.336 16.3853 19.5525 17.1688 19.5525 18.1353V21.8103H16.0525C15.086 21.8103 14.3025 22.5938 14.3025 23.5603C14.3025 24.5268 15.086 25.3103 16.0525 25.3103H19.5525V28.6353C19.5525 29.6017 20.336 30.3853 21.3025 30.3853C22.269 30.3853 23.0525 29.6017 23.0525 28.6353V25.3103H26.5525C27.519 25.3103 28.3025 24.5268 28.3025 23.5603C28.3025 22.5938 27.519 21.8103 26.5525 21.8103H23.0525V18.1353C23.0525 17.1688 22.269 16.3853 21.3025 16.3853Z" fill="black"/>
<path d="M19.5525 21.8103V23.0103H20.7525V21.8103H19.5525ZM19.5525 25.3103H20.7525V24.1103H19.5525V25.3103ZM23.0525 25.3103V24.1103H21.8525V25.3103H23.0525ZM23.0525 21.8103H21.8525V23.0103H23.0525V21.8103ZM20.7525 18.1353C20.7525 17.8315 20.9988 17.5853 21.3025 17.5853V15.1853C19.6733 15.1853 18.3525 16.506 18.3525 18.1353H20.7525ZM20.7525 21.8103V18.1353H18.3525V21.8103H20.7525ZM16.0525 23.0103H19.5525V20.6103H16.0525V23.0103ZM15.5025 23.5603C15.5025 23.2565 15.7488 23.0103 16.0525 23.0103V20.6103C14.4233 20.6103 13.1025 21.931 13.1025 23.5603L15.5025 23.5603ZM16.0525 24.1103C15.7488 24.1103 15.5025 23.864 15.5025 23.5603L13.1025 23.5603C13.1025 25.1895 14.4233 26.5103 16.0525 26.5103V24.1103ZM19.5525 24.1103H16.0525V26.5103H19.5525V24.1103ZM20.7525 28.6353V25.3103H18.3525V28.6353H20.7525ZM21.3025 29.1853C20.9988 29.1853 20.7525 28.939 20.7525 28.6353H18.3525C18.3525 30.2645 19.6733 31.5853 21.3025 31.5853V29.1853ZM21.8525 28.6353C21.8525 28.939 21.6063 29.1853 21.3025 29.1853V31.5853C22.9318 31.5853 24.2525 30.2645 24.2525 28.6353H21.8525ZM21.8525 25.3103V28.6353H24.2525V25.3103H21.8525ZM26.5525 24.1103H23.0525V26.5103H26.5525V24.1103ZM27.1025 23.5603C27.1025 23.864 26.8563 24.1103 26.5525 24.1103V26.5103C28.1818 26.5103 29.5025 25.1895 29.5025 23.5603H27.1025ZM26.5525 23.0103C26.8563 23.0103 27.1025 23.2565 27.1025 23.5603H29.5025C29.5025 21.931 28.1818 20.6103 26.5525 20.6103V23.0103ZM23.0525 23.0103H26.5525V20.6103H23.0525V23.0103ZM21.8525 18.1353V21.8103H24.2525V18.1353H21.8525ZM21.3025 17.5853C21.6063 17.5853 21.8525 17.8315 21.8525 18.1353H24.2525C24.2525 16.506 22.9318 15.1853 21.3025 15.1853V17.5853Z" fill="white" mask="url(#path-7-inside-1)"/>
<defs>
<filter id="filter0_d" x="0.2" y="0.600244" width="61.6" height="61.6" filterUnits="userSpaceOnUse" color-interpolation-filters="sRGB">
<feFlood flood-opacity="0" result="BackgroundImageFix"/>
<feColorMatrix in="SourceAlpha" type="matrix" values="0 0 0 0 0 0 0 0 0 0 0 0 0 0 0 0 0 0 127 0"/>
<feOffset dy="1.4"/>
<feGaussianBlur stdDeviation="1.4"/>
<feColorMatrix type="matrix" values="0 0 0 0 0 0 0 0 0 0 0 0 0 0 0 0 0 0 0.1 0"/>
<feBlend mode="normal" in2="BackgroundImageFix" result="effect1_dropShadow"/>
<feBlend mode="normal" in="SourceGraphic" in2="effect1_dropShadow" result="shape"/>
</filter>
</defs>
</svg>
