<?xml version="1.0" encoding="UTF-8" standalone="no"?>
<!DOCTYPE svg PUBLIC "-//W3C//DTD SVG 1.1//EN" "http://www.w3.org/Graphics/SVG/1.1/DTD/svg11.dtd">
<svg width="100%" height="100%" viewBox="0 0 1182 1182" version="1.1" xmlns="http://www.w3.org/2000/svg" xmlns:xlink="http://www.w3.org/1999/xlink" xml:space="preserve" xmlns:serif="http://www.serif.com/" style="fill-rule:evenodd;clip-rule:evenodd;stroke-linecap:round;stroke-linejoin:round;stroke-miterlimit:1.5;">
    <g transform="matrix(1,0,0,1,-3897,0)">
        <g id="Router1" transform="matrix(1,0,0,1,-179.798,0)">
            <rect x="4077.44" y="0" width="1181.1" height="1181.1" style="fill:none;"/>
            <g>
                <g transform="matrix(1,0,0,1,0.435696,0)">
                    <path d="M4171.49,1086.61l377.953,-377.953l-236.221,0" style="fill:none;stroke:black;stroke-width:104.17px;"/>
                </g>
                <g transform="matrix(1,0,0,1,0.435696,0)">
                    <path d="M4549.44,708.661l-0,225.339" style="fill:none;stroke:black;stroke-width:104.17px;"/>
                </g>
            </g>
            <g transform="matrix(-1,0,0,-1,9335.97,1181.1)">
                <g transform="matrix(1,0,0,1,0.435696,0)">
                    <path d="M4171.49,1086.61l377.953,-377.953l-236.221,0" style="fill:none;stroke:black;stroke-width:104.17px;"/>
                </g>
                <g transform="matrix(1,0,0,1,0.435696,0)">
                    <path d="M4549.44,708.661l-0,225.339" style="fill:none;stroke:black;stroke-width:104.17px;"/>
                </g>
            </g>
            <g transform="matrix(-1,0,0,1,8721.8,-614.173)">
                <g transform="matrix(1,0,0,1,0.435696,0)">
                    <path d="M4171.49,1086.61l377.953,-377.953l-236.221,0" style="fill:none;stroke:black;stroke-width:104.17px;"/>
                </g>
                <g transform="matrix(1,0,0,1,0.435696,0)">
                    <path d="M4549.44,708.661l-0,225.339" style="fill:none;stroke:black;stroke-width:104.17px;"/>
                </g>
            </g>
            <g>
                <g transform="matrix(1,0,0,1,0.435696,0)">
                    <path d="M4171.49,1086.61l377.953,-377.953l-236.221,0" style="fill:none;stroke:black;stroke-width:104.17px;"/>
                </g>
                <g transform="matrix(1,0,0,1,0.435696,0)">
                    <path d="M4549.44,708.661l-0,225.339" style="fill:none;stroke:black;stroke-width:104.17px;"/>
                </g>
            </g>
            <g transform="matrix(1,0,0,-1,614.173,1795.28)">
                <g transform="matrix(1,0,0,1,0.435696,0)">
                    <path d="M4171.49,1086.61l377.953,-377.953l-236.221,0" style="fill:none;stroke:black;stroke-width:104.17px;"/>
                </g>
                <g transform="matrix(1,0,0,1,0.435696,0)">
                    <path d="M4549.44,708.661l-0,225.339" style="fill:none;stroke:black;stroke-width:104.17px;"/>
                </g>
            </g>
        </g>
    </g>
</svg>
