<?xml version="1.0" encoding="UTF-8" standalone="no"?>
<!DOCTYPE svg PUBLIC "-//W3C//DTD SVG 1.1//EN" "http://www.w3.org/Graphics/SVG/1.1/DTD/svg11.dtd">
<svg width="100%" height="100%" viewBox="0 0 1182 1182" version="1.1" xmlns="http://www.w3.org/2000/svg" xmlns:xlink="http://www.w3.org/1999/xlink" xml:space="preserve" xmlns:serif="http://www.serif.com/" style="fill-rule:evenodd;clip-rule:evenodd;stroke-linejoin:round;stroke-miterlimit:2;">
    <g transform="matrix(1,0,0,1,-22086,-1)">
        <g id="Select1" transform="matrix(1.00085,0,0,1.00085,2558.27,-0.000847384)">
            <rect x="19511.8" y="1" width="1180.1" height="1180.1" style="fill:none;"/>
            <g transform="matrix(37.1192,0,0,37.1192,18976.9,-540.463)">
                <path d="M41.886,29.294L19.658,15.919C18.88,15.564 18.051,16.319 18.259,17.103L24.785,41.707C24.931,42.258 25.482,42.59 26.016,42.449C26.267,42.382 26.482,42.218 26.582,42.038L30.264,36.408L36.729,44.87C36.839,45.014 37,45.108 37.176,45.133C37.261,45.143 37.347,45.137 37.428,45.116C37.514,45.093 37.596,45.051 37.667,44.994L41.33,42.058C41.619,41.828 41.668,41.396 41.438,41.096L35.178,32.901L41.65,31.184C42.184,31.042 42.499,30.481 42.353,29.93C42.31,29.769 42.206,29.538 41.886,29.294Z" style="fill-rule:nonzero;"/>
            </g>
        </g>
    </g>
</svg>
