<svg width="64" height="64" viewBox="0 0 64 64" fill="none" xmlns="http://www.w3.org/2000/svg">
<g filter="url(#filter0_d)">
<circle cx="32" cy="30" r="28" fill="white"/>
<circle cx="32" cy="30" r="27.5" stroke="#F2F2F2"/>
</g>
<path d="M41.8856 29.2938L19.6578 15.9187C18.8796 15.5644 18.0508 16.3194 18.2586 17.1028L24.7847 41.7074C24.9308 42.2581 25.4823 42.5901 26.0159 42.4486C26.2672 42.3819 26.4816 42.2181 26.5816 42.0378L30.2637 36.4077L36.7293 44.8697C36.8393 45.0141 36.9995 45.1084 37.1757 45.1329C37.2611 45.1428 37.3466 45.1373 37.4278 45.1158C37.5141 45.0929 37.5955 45.0512 37.6672 44.9939L41.3301 42.0578C41.6194 41.8275 41.6678 41.396 41.4378 41.0955L35.1782 32.9006L41.6504 31.1839C42.184 31.0424 42.4985 30.4806 42.3525 29.93C42.3098 29.769 42.2057 29.5376 41.8856 29.2938V29.2938Z" fill="#595959"/>
<defs>
<filter id="filter0_d" x="0" y="0" width="64" height="64" filterUnits="userSpaceOnUse" color-interpolation-filters="sRGB">
<feFlood flood-opacity="0" result="BackgroundImageFix"/>
<feColorMatrix in="SourceAlpha" type="matrix" values="0 0 0 0 0 0 0 0 0 0 0 0 0 0 0 0 0 0 127 0"/>
<feOffset dy="2"/>
<feGaussianBlur stdDeviation="2"/>
<feColorMatrix type="matrix" values="0 0 0 0 0 0 0 0 0 0 0 0 0 0 0 0 0 0 0.1 0"/>
<feBlend mode="normal" in2="BackgroundImageFix" result="effect1_dropShadow"/>
<feBlend mode="normal" in="SourceGraphic" in2="effect1_dropShadow" result="shape"/>
</filter>
</defs>
</svg>
