<?xml version="1.0" encoding="UTF-8" standalone="no"?>
<!DOCTYPE svg PUBLIC "-//W3C//DTD SVG 1.1//EN" "http://www.w3.org/Graphics/SVG/1.1/DTD/svg11.dtd">
<svg width="100%" height="100%" viewBox="0 0 1182 1182" version="1.1" xmlns="http://www.w3.org/2000/svg" xmlns:xlink="http://www.w3.org/1999/xlink" xml:space="preserve" xmlns:serif="http://www.serif.com/" style="fill-rule:evenodd;clip-rule:evenodd;stroke-linecap:round;stroke-linejoin:round;stroke-miterlimit:100;">
    <g transform="matrix(1,0,0,1,-6496,0)">
        <g id="Server1" transform="matrix(1,0,0,1,-359.373,0)">
            <rect x="6855.44" y="0" width="1181.1" height="1181.1" style="fill:none;"/>
            <g transform="matrix(1.5,0,0,1,-3722.34,0)">
                <rect x="7209.33" y="118.11" width="472.441" height="944.882" style="fill:none;stroke:black;stroke-width:81.72px;"/>
            </g>
            <g transform="matrix(1.28571,0,0,1.6,-2126.86,-141.732)">
                <rect x="7280.2" y="236.22" width="330.709" height="118.11" style="fill:none;stroke:black;stroke-width:35.89px;"/>
            </g>
            <g transform="matrix(1,0,0,1,0.435696,0)">
                <path d="M7232.95,519.685l425.197,0" style="fill:none;stroke:black;stroke-width:52.08px;"/>
            </g>
            <g transform="matrix(1,0,0,1,0.435696,94.4882)">
                <path d="M7232.95,519.685l425.197,0" style="fill:none;stroke:black;stroke-width:52.08px;"/>
            </g>
            <g transform="matrix(1,0,0,1,0.435696,188.976)">
                <path d="M7232.95,519.685l425.197,0" style="fill:none;stroke:black;stroke-width:52.08px;"/>
            </g>
        </g>
    </g>
</svg>
