<svg width="62" height="63" viewBox="0 0 62 63" fill="none" xmlns="http://www.w3.org/2000/svg">
<g filter="url(#filter0_d)">
<circle cx="31" cy="30.0002" r="28" fill="white"/>
<circle cx="31" cy="30.0002" r="27.65" stroke="#F2F2F2" stroke-width="0.7"/>
</g>
<path d="M23.8338 47.0003C21.7274 47.0003 20.0137 45.2866 20.0137 43.1802C20.0137 40.6254 23.3493 37.0261 23.4913 36.8741C23.7197 36.6758 23.948 36.6758 24.1764 36.8741C24.3183 37.0261 27.6539 40.6254 27.6539 43.1802C27.6538 45.2866 25.9402 47.0003 23.8338 47.0003V47.0003ZM23.8338 37.8968C22.7958 39.0974 20.9512 41.5655 20.9512 43.1802C20.9512 44.7696 22.2443 46.0628 23.8338 46.0628C25.4232 46.0628 26.7163 44.7697 26.7163 43.1802C26.7163 41.5655 24.8718 39.0974 23.8338 37.8968V37.8968Z" fill="#595959"/>
<path d="M48.1255 19.0029H47.0096C45.8669 19.0029 44.9371 19.9327 44.9371 21.0755V21.9578H41.042V21.4216C41.042 21.1627 40.8322 20.9529 40.5732 20.9529H36.991V18.4816H39.5289C40.4765 18.4816 41.2476 17.7106 41.2476 16.7628V16.7191C41.2476 15.7713 40.4765 15.0003 39.5289 15.0003H38.4632C38.2042 15.0003 37.9944 15.2102 37.9944 15.4691C37.9944 15.7279 38.2042 15.9378 38.4632 15.9378H39.5289C39.9597 15.9378 40.3101 16.2882 40.3101 16.7191V16.7628C40.3101 17.1936 39.9597 17.5441 39.5289 17.5441H30.8426C30.4118 17.5441 30.0614 17.1936 30.0614 16.7628V16.7191C30.0614 16.2882 30.4118 15.9378 30.8426 15.9378H36.4207C36.6797 15.9378 36.8895 15.7279 36.8895 15.4691C36.8895 15.2102 36.6797 15.0003 36.4207 15.0003H30.8426C29.8949 15.0003 29.1239 15.7713 29.1239 16.7191V16.7628C29.1239 17.7106 29.8949 18.4816 30.8426 18.4816H33.7418V20.9528H30.3595C30.1006 20.9528 29.8908 21.1627 29.8908 21.4216V21.9577L25.0388 21.9578C22.4631 21.9578 20.3677 24.0532 20.3677 26.6289V32.0149C18.4856 32.3107 18.5245 35.2347 20.617 35.2347H22.782C23.041 35.2347 23.2508 35.0248 23.2508 34.7659C23.2508 34.5071 23.041 34.2972 22.782 34.2972H20.617C19.7775 34.2972 19.7431 32.9328 20.617 32.9328H27.0502C27.8896 32.9328 27.924 34.2972 27.0502 34.2972H24.8245C24.5656 34.2972 24.3558 34.5071 24.3558 34.7659C24.3558 35.0248 24.5656 35.2347 24.8245 35.2347H27.0502C29.0089 35.2347 29.3103 32.3316 27.3 32.0149V28.8901H29.8908V29.4316C29.8908 29.6904 30.1006 29.9003 30.3595 29.9003H40.5733C40.8322 29.9003 41.042 29.6904 41.042 29.4316V28.8901H44.9372V29.7723C44.9372 30.9151 45.8669 31.8449 47.0097 31.8449H48.1255C48.3845 31.8449 48.5943 31.635 48.5943 31.3761V19.4717C48.5942 19.2127 48.3844 19.0029 48.1255 19.0029V19.0029ZM34.6792 18.4817H36.0534V20.9528H34.6792V18.4817ZM30.8282 28.9628V27.0647C30.8282 26.8058 30.6184 26.5959 30.3594 26.5959C30.1005 26.5959 29.8907 26.8058 29.8907 27.0647V27.9526H26.8311C26.5722 27.9526 26.3624 28.1625 26.3624 28.4214V31.9952H21.305V26.629C21.305 24.5703 22.98 22.8954 25.0387 22.8954L29.8907 22.8953V25.0222C29.8907 25.2811 30.1005 25.491 30.3594 25.491C30.6184 25.491 30.8282 25.2811 30.8282 25.0222V21.8904H40.1044V28.9628H30.8282ZM41.0419 27.9526V22.8952H44.937V27.9526H41.0419ZM47.6567 30.9074H47.0096C46.3837 30.9074 45.8746 30.3982 45.8746 29.7723V21.0754C45.8746 20.4496 46.3837 19.9404 47.0096 19.9404H47.6567V30.9074Z" fill="#595959"/>
<mask id="path-5-inside-1" fill="white">
<path fill-rule="evenodd" clip-rule="evenodd" d="M20.9999 13.0002C20.0334 13.0002 19.2499 13.7837 19.2499 14.7502V18.4252H15.7499C14.7834 18.4252 13.9999 19.2087 13.9999 20.1752C13.9999 21.1417 14.7834 21.9252 15.7499 21.9252H19.2499V25.2502C19.2499 26.2167 20.0334 27.0002 20.9999 27.0002C21.9664 27.0002 22.7499 26.2167 22.7499 25.2502V21.9252H26.2499C27.2164 21.9252 27.9999 21.1417 27.9999 20.1752C27.9999 19.2087 27.2164 18.4252 26.2499 18.4252H22.7499V14.7502C22.7499 13.7837 21.9664 13.0002 20.9999 13.0002Z"/>
</mask>
<path fill-rule="evenodd" clip-rule="evenodd" d="M20.9999 13.0002C20.0334 13.0002 19.2499 13.7837 19.2499 14.7502V18.4252H15.7499C14.7834 18.4252 13.9999 19.2087 13.9999 20.1752C13.9999 21.1417 14.7834 21.9252 15.7499 21.9252H19.2499V25.2502C19.2499 26.2167 20.0334 27.0002 20.9999 27.0002C21.9664 27.0002 22.7499 26.2167 22.7499 25.2502V21.9252H26.2499C27.2164 21.9252 27.9999 21.1417 27.9999 20.1752C27.9999 19.2087 27.2164 18.4252 26.2499 18.4252H22.7499V14.7502C22.7499 13.7837 21.9664 13.0002 20.9999 13.0002Z" fill="black"/>
<path d="M19.2499 18.4252V18.9502H19.7749V18.4252H19.2499ZM19.2499 21.9252H19.7749V21.4002H19.2499V21.9252ZM22.7499 21.9252V21.4002H22.2249V21.9252H22.7499ZM22.7499 18.4252H22.2249V18.9502H22.7499V18.4252ZM19.7749 14.7502C19.7749 14.0737 20.3234 13.5252 20.9999 13.5252V12.4752C19.7435 12.4752 18.7249 13.4938 18.7249 14.7502H19.7749ZM19.7749 18.4252V14.7502H18.7249V18.4252H19.7749ZM15.7499 18.9502H19.2499V17.9002H15.7499V18.9502ZM14.5249 20.1752C14.5249 19.4986 15.0734 18.9502 15.7499 18.9502V17.9002C14.4935 17.9002 13.4749 18.9187 13.4749 20.1752L14.5249 20.1752ZM15.7499 21.4002C15.0734 21.4002 14.5249 20.8517 14.5249 20.1752L13.4749 20.1752C13.4749 21.4316 14.4935 22.4502 15.7499 22.4502V21.4002ZM19.2499 21.4002H15.7499V22.4502H19.2499V21.4002ZM19.7749 25.2502V21.9252H18.7249V25.2502H19.7749ZM20.9999 26.4752C20.3234 26.4752 19.7749 25.9268 19.7749 25.2502H18.7249C18.7249 26.5067 19.7435 27.5252 20.9999 27.5252V26.4752ZM22.2249 25.2502C22.2249 25.9268 21.6765 26.4752 20.9999 26.4752V27.5252C22.2564 27.5252 23.2749 26.5067 23.2749 25.2502H22.2249ZM22.2249 21.9252V25.2502H23.2749V21.9252H22.2249ZM26.2499 21.4002H22.7499V22.4502H26.2499V21.4002ZM27.4749 20.1752C27.4749 20.8517 26.9265 21.4002 26.2499 21.4002V22.4502C27.5064 22.4502 28.5249 21.4316 28.5249 20.1752H27.4749ZM26.2499 18.9502C26.9265 18.9502 27.4749 19.4986 27.4749 20.1752H28.5249C28.5249 18.9187 27.5064 17.9002 26.2499 17.9002V18.9502ZM22.7499 18.9502H26.2499V17.9002H22.7499V18.9502ZM22.2249 14.7502V18.4252H23.2749V14.7502H22.2249ZM20.9999 13.5252C21.6765 13.5252 22.2249 14.0737 22.2249 14.7502H23.2749C23.2749 13.4938 22.2564 12.4752 20.9999 12.4752V13.5252Z" fill="white" mask="url(#path-5-inside-1)"/>
<defs>
<filter id="filter0_d" x="0.2" y="0.600244" width="61.6" height="61.6" filterUnits="userSpaceOnUse" color-interpolation-filters="sRGB">
<feFlood flood-opacity="0" result="BackgroundImageFix"/>
<feColorMatrix in="SourceAlpha" type="matrix" values="0 0 0 0 0 0 0 0 0 0 0 0 0 0 0 0 0 0 127 0"/>
<feOffset dy="1.4"/>
<feGaussianBlur stdDeviation="1.4"/>
<feColorMatrix type="matrix" values="0 0 0 0 0 0 0 0 0 0 0 0 0 0 0 0 0 0 0.1 0"/>
<feBlend mode="normal" in2="BackgroundImageFix" result="effect1_dropShadow"/>
<feBlend mode="normal" in="SourceGraphic" in2="effect1_dropShadow" result="shape"/>
</filter>
</defs>
</svg>
