<svg width="64" height="64" viewBox="0 0 64 64" fill="none" xmlns="http://www.w3.org/2000/svg">
<g filter="url(#filter0_d)">
<circle cx="32" cy="30.0002" r="28" fill="white"/>
<circle cx="32" cy="30.0002" r="27.5" stroke="#F2F2F2"/>
</g>
<path d="M47.0001 20.0002H20.6C18.6118 20.0002 17 21.612 17 23.6002V40.4002C17 42.3885 18.6118 44.0002 20.6 44.0002H47.0001C48.9883 44.0002 50.6001 42.3885 50.6001 40.4002V23.6002C50.6001 21.612 48.9883 20.0002 47.0001 20.0002ZM48.2 33.9034L40.6484 26.3519C40.1799 25.8834 39.4202 25.8834 38.9517 26.3519L29 36.3034L25.0484 32.3518C24.5798 31.8833 23.8202 31.8833 23.3516 32.3518L19.4 36.3034V23.6002C19.4 22.9375 19.9372 22.4002 20.6 22.4002H47.0001C47.6628 22.4002 48.2001 22.9375 48.2001 23.6002V33.9034H48.2Z" fill="#595959"/>
<path d="M27.8 32.0002C29.7882 32.0002 31.4 30.3884 31.4 28.4002C31.4 26.412 29.7882 24.8002 27.8 24.8002C25.8118 24.8002 24.2 26.412 24.2 28.4002C24.2 30.3884 25.8118 32.0002 27.8 32.0002Z" fill="#595959"/>
<mask id="path-5-inside-1" fill="white">
<path fill-rule="evenodd" clip-rule="evenodd" d="M20 16.0002C19.0335 16.0002 18.25 16.7837 18.25 17.7502V21.4252H14.75C13.7835 21.4252 13 22.2087 13 23.1752C13 24.1417 13.7835 24.9252 14.75 24.9252H18.25V28.2502C18.25 29.2167 19.0335 30.0002 20 30.0002C20.9665 30.0002 21.75 29.2167 21.75 28.2502V24.9252H25.25C26.2165 24.9252 27 24.1417 27 23.1752C27 22.2087 26.2165 21.4252 25.25 21.4252H21.75V17.7502C21.75 16.7837 20.9665 16.0002 20 16.0002Z"/>
</mask>
<path fill-rule="evenodd" clip-rule="evenodd" d="M20 16.0002C19.0335 16.0002 18.25 16.7837 18.25 17.7502V21.4252H14.75C13.7835 21.4252 13 22.2087 13 23.1752C13 24.1417 13.7835 24.9252 14.75 24.9252H18.25V28.2502C18.25 29.2167 19.0335 30.0002 20 30.0002C20.9665 30.0002 21.75 29.2167 21.75 28.2502V24.9252H25.25C26.2165 24.9252 27 24.1417 27 23.1752C27 22.2087 26.2165 21.4252 25.25 21.4252H21.75V17.7502C21.75 16.7837 20.9665 16.0002 20 16.0002Z" fill="black"/>
<path d="M18.25 21.4252V22.1752H19V21.4252H18.25ZM18.25 24.9252H19V24.1752H18.25V24.9252ZM21.75 24.9252V24.1752H21V24.9252H21.75ZM21.75 21.4252H21V22.1752H21.75V21.4252ZM19 17.7502C19 17.198 19.4477 16.7502 20 16.7502V15.2502C18.6193 15.2502 17.5 16.3695 17.5 17.7502H19ZM19 21.4252V17.7502H17.5V21.4252H19ZM14.75 22.1752H18.25V20.6752H14.75V22.1752ZM13.75 23.1752C13.75 22.6229 14.1977 22.1752 14.75 22.1752V20.6752C13.3693 20.6752 12.25 21.7945 12.25 23.1752H13.75ZM14.75 24.1752C14.1977 24.1752 13.75 23.7275 13.75 23.1752H12.25C12.25 24.5559 13.3693 25.6752 14.75 25.6752V24.1752ZM18.25 24.1752H14.75V25.6752H18.25V24.1752ZM19 28.2502V24.9252H17.5V28.2502H19ZM20 29.2502C19.4477 29.2502 19 28.8025 19 28.2502H17.5C17.5 29.631 18.6193 30.7502 20 30.7502V29.2502ZM21 28.2502C21 28.8025 20.5523 29.2502 20 29.2502V30.7502C21.3807 30.7502 22.5 29.631 22.5 28.2502H21ZM21 24.9252V28.2502H22.5V24.9252H21ZM25.25 24.1752H21.75V25.6752H25.25V24.1752ZM26.25 23.1752C26.25 23.7275 25.8023 24.1752 25.25 24.1752V25.6752C26.6307 25.6752 27.75 24.5559 27.75 23.1752H26.25ZM25.25 22.1752C25.8023 22.1752 26.25 22.6229 26.25 23.1752H27.75C27.75 21.7945 26.6307 20.6752 25.25 20.6752V22.1752ZM21.75 22.1752H25.25V20.6752H21.75V22.1752ZM21 17.7502V21.4252H22.5V17.7502H21ZM20 16.7502C20.5523 16.7502 21 17.198 21 17.7502H22.5C22.5 16.3695 21.3807 15.2502 20 15.2502V16.7502Z" fill="white" mask="url(#path-5-inside-1)"/>
<defs>
<filter id="filter0_d" x="0" y="0.000244141" width="64" height="64" filterUnits="userSpaceOnUse" color-interpolation-filters="sRGB">
<feFlood flood-opacity="0" result="BackgroundImageFix"/>
<feColorMatrix in="SourceAlpha" type="matrix" values="0 0 0 0 0 0 0 0 0 0 0 0 0 0 0 0 0 0 127 0"/>
<feOffset dy="2"/>
<feGaussianBlur stdDeviation="2"/>
<feColorMatrix type="matrix" values="0 0 0 0 0 0 0 0 0 0 0 0 0 0 0 0 0 0 0.1 0"/>
<feBlend mode="normal" in2="BackgroundImageFix" result="effect1_dropShadow"/>
<feBlend mode="normal" in="SourceGraphic" in2="effect1_dropShadow" result="shape"/>
</filter>
</defs>
</svg>
